<svg xmlns="http://www.w3.org/2000/svg" width="888" height="298" viewBox="0 0 888 298" version="1.1">
	<path d="M 75.018 42.077 C 72.553 43.195, 69.692 44.873, 68.662 45.805 C 63.777 50.222, 61.076 60.811, 63.268 66.956 C 65.166 72.279, 71.118 76.066, 84.274 80.320 C 93.815 83.405, 96.673 84.792, 99.509 87.712 C 101.479 89.740, 103.066 92.438, 103.151 93.903 C 103.845 105.851, 98.923 111.840, 87.676 112.733 C 75.058 113.735, 66.870 108.608, 63.374 97.517 C 62.417 94.483, 61.267 92, 60.817 92 C 60.368 92, 60 96.725, 60 102.500 C 60 108.275, 60.231 113, 60.514 113 C 60.796 113, 61.904 112.452, 62.976 111.783 C 64.527 110.815, 65.906 110.857, 69.713 111.989 C 75.909 113.831, 89.671 114.435, 94.686 113.085 C 99.828 111.700, 106.803 105.643, 109.114 100.556 C 111.342 95.651, 111.551 86.967, 109.536 83.069 C 106.805 77.787, 102.314 75.160, 88.685 70.868 C 77.571 67.369, 74.911 66.129, 71.750 62.976 C 68.698 59.931, 68.003 58.516, 68.015 55.368 C 68.042 48.218, 72.338 43.401, 79.925 42.014 C 89.877 40.194, 97.960 45.051, 101.856 55.192 L 103.896 60.500 103.948 51.250 C 103.977 46.163, 103.588 42, 103.083 42 C 102.579 42, 101.981 42.557, 101.754 43.238 C 101.445 44.164, 99.594 43.908, 94.421 42.224 C 85.936 39.462, 80.867 39.424, 75.018 42.077 M 227.096 41.507 C 221.513 43.247, 213.333 48.882, 209.678 53.505 C 208.125 55.468, 205.650 59.645, 204.178 62.787 C 200.569 70.486, 200.377 83.613, 203.750 92 C 206.786 99.549, 213.493 106.910, 220.632 110.527 C 225.848 113.169, 227.501 113.500, 235.500 113.500 C 242.820 113.500, 245.354 113.079, 249.077 111.245 C 256.007 107.830, 262.726 100.798, 266.331 93.189 C 269.198 87.138, 269.500 85.594, 269.500 77 C 269.500 68.825, 269.132 66.716, 266.865 61.880 C 262.056 51.624, 254.137 44.603, 243.972 41.584 C 237.577 39.685, 233.006 39.664, 227.096 41.507 M 315.271 41.540 C 305.308 44.223, 296.982 51.543, 292.135 61.880 C 289.839 66.778, 289.500 68.785, 289.500 77.500 C 289.500 86.455, 289.796 88.103, 292.332 93.268 C 295.736 100.199, 303.031 107.948, 309.082 111.059 C 315.328 114.271, 326.689 114.845, 336.036 112.421 C 341.706 110.950, 343.491 110.826, 345.040 111.793 C 346.103 112.457, 347.204 113, 347.486 113 C 347.769 113, 348 108.248, 348 102.441 C 348 92.262, 346.951 89.496, 345.618 96.161 C 344.306 102.721, 340.174 108.031, 334.283 110.728 C 329.589 112.877, 327.758 113.180, 321.966 112.765 C 306.296 111.644, 300.620 102.290, 300.567 77.500 C 300.514 52.505, 307.391 41.750, 323.426 41.750 C 333.887 41.750, 339.984 45.976, 343.567 55.711 C 346.440 63.515, 347 62.942, 347 52.200 C 347 41.830, 346.637 40.961, 343.201 43.106 C 341.843 43.954, 339.836 43.721, 334.609 42.106 C 326.768 39.685, 322.612 39.563, 315.271 41.540 M 552.096 41.507 C 546.513 43.247, 538.333 48.882, 534.678 53.505 C 533.125 55.468, 530.650 59.645, 529.178 62.787 C 525.569 70.486, 525.377 83.613, 528.750 92 C 531.786 99.549, 538.493 106.910, 545.632 110.527 C 550.848 113.169, 552.501 113.500, 560.500 113.500 C 567.820 113.500, 570.354 113.079, 574.077 111.245 C 581.007 107.830, 587.726 100.798, 591.331 93.189 C 594.198 87.138, 594.500 85.594, 594.500 77 C 594.500 68.825, 594.132 66.716, 591.865 61.880 C 587.056 51.624, 579.137 44.603, 568.972 41.584 C 562.577 39.685, 558.006 39.664, 552.096 41.507 M 790.018 42.077 C 787.553 43.195, 784.692 44.873, 783.662 45.805 C 778.777 50.222, 776.076 60.811, 778.268 66.956 C 780.166 72.279, 786.118 76.066, 799.274 80.320 C 808.815 83.405, 811.673 84.792, 814.509 87.712 C 816.479 89.740, 818.066 92.438, 818.151 93.903 C 818.845 105.851, 813.923 111.840, 802.676 112.733 C 790.058 113.735, 781.870 108.608, 778.374 97.517 C 777.417 94.483, 776.267 92, 775.817 92 C 775.368 92, 775 96.725, 775 102.500 C 775 108.275, 775.231 113, 775.514 113 C 775.796 113, 776.904 112.452, 777.976 111.783 C 779.527 110.815, 780.906 110.857, 784.713 111.989 C 790.909 113.831, 804.671 114.435, 809.686 113.085 C 814.828 111.700, 821.803 105.643, 824.114 100.556 C 826.342 95.651, 826.551 86.967, 824.536 83.069 C 821.805 77.787, 817.314 75.160, 803.685 70.868 C 792.571 67.369, 789.911 66.129, 786.750 62.976 C 783.698 59.931, 783.003 58.516, 783.015 55.368 C 783.042 48.218, 787.338 43.401, 794.925 42.014 C 804.877 40.194, 812.960 45.051, 816.856 55.192 L 818.896 60.500 818.948 51.250 C 818.977 46.163, 818.587 42, 818.083 42 C 817.579 42, 816.981 42.557, 816.754 43.238 C 816.445 44.164, 814.594 43.908, 809.421 42.224 C 800.936 39.462, 795.867 39.424, 790.018 42.077 M 231.500 42.036 C 225.420 42.927, 221.187 45.635, 217.988 50.680 C 214.045 56.898, 212.576 64.365, 212.616 78 C 212.655 91.277, 214.039 98.094, 217.950 104.260 C 221.829 110.376, 226.523 112.500, 236.164 112.500 C 243.065 112.500, 244.252 112.201, 248.093 109.500 C 254.165 105.230, 256.952 99.054, 258.303 86.878 C 259.519 75.921, 258.268 61.280, 255.563 54.804 C 251.454 44.970, 242.801 40.379, 231.500 42.036 M 556.500 42.036 C 550.420 42.927, 546.187 45.635, 542.988 50.680 C 539.045 56.898, 537.576 64.365, 537.616 78 C 537.655 91.277, 539.039 98.094, 542.950 104.260 C 546.829 110.376, 551.523 112.500, 561.164 112.500 C 568.065 112.500, 569.252 112.201, 573.093 109.500 C 579.165 105.230, 581.952 99.054, 583.303 86.878 C 584.519 75.921, 583.268 61.280, 580.563 54.804 C 576.454 44.970, 567.801 40.379, 556.500 42.036 M 127.058 51.250 L 127.115 60.500 129.411 55.500 C 133.457 46.685, 138.985 43.019, 148.250 43.006 L 152 43 152 77.450 L 152 111.900 146.250 112.261 C 143.088 112.459, 147.925 112.634, 157 112.648 C 166.075 112.662, 171.025 112.410, 168 112.087 L 162.500 111.500 162.237 77.112 L 161.973 42.724 168.327 43.234 C 171.998 43.529, 175.846 44.508, 177.442 45.554 C 180.534 47.580, 184.583 53.491, 185.569 57.417 C 186.888 62.674, 188 59.740, 188 51 L 188 42 157.500 42 L 127 42 127.058 51.250 M 364.250 42.739 L 370 43.100 370 77.500 L 370 111.900 364.250 112.261 C 361.087 112.459, 365.700 112.624, 374.500 112.626 C 383.300 112.628, 388.137 112.465, 385.250 112.263 L 380 111.895 380 93.748 C 380 82.308, 380.351 75.951, 380.948 76.550 C 383.900 79.507, 409.975 110.614, 409.986 111.193 C 409.994 111.573, 408.087 112.057, 405.750 112.268 C 403.413 112.478, 408.250 112.654, 416.500 112.657 C 424.750 112.661, 429.889 112.492, 427.920 112.282 C 424.659 111.934, 422.713 110.030, 406.110 90.936 L 387.880 69.972 400.634 56.533 C 412.961 43.544, 413.541 43.081, 417.944 42.727 C 420.450 42.525, 417.550 42.353, 411.500 42.343 C 404.102 42.332, 402.222 42.518, 405.760 42.913 L 411.019 43.500 396.292 59 C 388.192 67.525, 381.213 74.650, 380.782 74.833 C 380.352 75.017, 380 67.953, 380 59.136 L 380 43.105 385.250 42.737 C 388.137 42.535, 383.300 42.372, 374.500 42.374 C 365.700 42.376, 361.087 42.541, 364.250 42.739 M 442.250 42.739 L 448 43.100 448 77.500 L 448 111.900 442.250 112.261 C 439.087 112.459, 443.925 112.622, 453 112.622 C 462.075 112.622, 466.913 112.459, 463.750 112.261 L 458 111.900 458 94.450 L 458 77 474.500 77 L 491 77 491 94.450 L 491 111.900 485.250 112.261 C 482.087 112.459, 487.150 112.631, 496.500 112.643 C 505.850 112.654, 510.800 112.402, 507.500 112.082 L 501.500 111.500 501.500 77.500 L 501.500 43.500 507.500 42.918 C 510.800 42.598, 505.850 42.346, 496.500 42.357 C 487.150 42.369, 482.087 42.541, 485.250 42.739 L 491 43.100 491 59.550 L 491 76 474.500 76 L 458 76 458 59.550 L 458 43.100 463.750 42.739 C 466.913 42.541, 462.075 42.378, 453 42.378 C 443.925 42.378, 439.087 42.541, 442.250 42.739 M 614.250 42.739 L 620 43.100 620 77.500 L 620 111.900 614.250 112.261 C 611.087 112.459, 622.337 112.707, 639.250 112.811 L 670 113 669.926 101.750 L 669.852 90.500 668 94.500 C 666.982 96.700, 666.115 98.960, 666.074 99.522 C 665.935 101.447, 659.822 108.041, 656.663 109.674 C 654.484 110.801, 649.869 111.456, 641.753 111.790 L 630 112.275 630 77.687 L 630 43.100 635.750 42.739 C 638.913 42.541, 634.075 42.378, 625 42.378 C 615.925 42.378, 611.087 42.541, 614.250 42.739 M 686.263 42.722 L 692.026 43.101 691.763 77.300 L 691.500 111.500 686 112.087 C 682.356 112.476, 684.549 112.674, 692.500 112.674 C 700.451 112.674, 702.644 112.476, 699 112.087 L 693.500 111.500 693.236 78.070 C 693.091 59.683, 693.150 44.833, 693.366 45.070 C 693.582 45.306, 698.817 60.125, 704.998 78 C 711.179 95.875, 716.548 110.842, 716.929 111.261 C 717.310 111.680, 722.720 97.167, 728.951 79.011 C 735.182 60.855, 740.442 46, 740.640 46 C 740.838 46, 741 60.828, 741 78.950 L 741 111.900 735.250 112.261 C 732.087 112.459, 736.925 112.634, 746 112.648 C 755.075 112.662, 760.025 112.410, 757 112.087 L 751.500 111.500 751.237 77.300 L 750.974 43.101 756.737 42.739 C 759.970 42.537, 757.613 42.295, 751.366 42.189 L 740.232 42 732.103 65.629 C 727.631 78.625, 723.704 90.330, 723.376 91.639 C 723.047 92.948, 722.461 94.215, 722.073 94.455 C 721.685 94.695, 717.310 83.103, 712.351 68.696 L 703.336 42.500 691.918 42.422 C 685.638 42.378, 683.093 42.514, 686.263 42.722 M 151 184.370 C 141.661 186.933, 132.840 194.846, 128.135 204.880 C 125.839 209.778, 125.500 211.785, 125.500 220.500 C 125.500 229.626, 125.762 231.019, 128.500 236.434 C 132.373 244.095, 139.540 251.412, 146.213 254.519 C 154.211 258.243, 164.815 258.032, 174.081 253.964 C 179.466 251.601, 181.427 251.158, 182.933 251.964 C 183.998 252.534, 185.123 253, 185.434 253 C 185.745 253, 186 248.050, 186 242 L 186 231 190 231 C 192.200 231, 194 230.550, 194 230 C 194 229.378, 188.333 229, 179 229 C 169.667 229, 164 229.378, 164 230 C 164 230.566, 166.878 231, 170.634 231 L 177.269 231 176.775 237.905 C 176.151 246.615, 173.571 251.061, 167.407 254.045 C 161.165 257.067, 152.844 256.486, 147.004 252.621 C 139.397 247.588, 135.064 231.819, 136.454 214.230 C 138.070 193.782, 145.023 184.896, 159.472 184.813 C 163.414 184.790, 167.085 185.421, 169.399 186.519 C 174.055 188.729, 178.727 194.345, 180.197 199.500 C 182.251 206.707, 183 205.558, 183 195.200 C 183 184.830, 182.637 183.961, 179.201 186.106 C 177.843 186.954, 175.836 186.721, 170.609 185.106 C 162.972 182.748, 157.641 182.547, 151 184.370 M 321.526 186.285 C 320.730 188.188, 315.303 202.515, 309.465 218.123 C 294.800 257.327, 296.070 254.796, 290.833 255.264 C 288.450 255.476, 291.450 255.646, 297.500 255.640 C 303.550 255.635, 306.137 255.465, 303.250 255.263 C 299.999 255.035, 298 254.433, 298 253.681 C 298 253.012, 300.164 246.848, 302.809 239.983 L 307.617 227.500 319.449 227.500 L 331.280 227.500 336.140 240.364 C 338.813 247.440, 341 253.605, 341 254.064 C 341 254.524, 338.413 255.063, 335.250 255.261 C 332.087 255.459, 336.700 255.631, 345.500 255.643 C 354.300 255.654, 359.700 255.484, 357.500 255.265 C 355.300 255.046, 353.115 254.489, 352.645 254.029 C 352.175 253.568, 345.834 237.534, 338.554 218.398 C 331.273 199.262, 324.789 183.430, 324.144 183.215 C 323.499 183, 322.321 184.381, 321.526 186.285 M 394.018 185.077 C 391.553 186.195, 388.692 187.873, 387.662 188.805 C 382.777 193.222, 380.076 203.811, 382.268 209.956 C 384.166 215.279, 390.118 219.066, 403.274 223.320 C 412.815 226.405, 415.673 227.792, 418.509 230.712 C 420.479 232.740, 422.066 235.438, 422.151 236.903 C 422.845 248.851, 417.923 254.840, 406.676 255.733 C 394.058 256.735, 385.870 251.608, 382.374 240.517 C 381.417 237.483, 380.267 235, 379.817 235 C 379.368 235, 379 239.725, 379 245.500 C 379 251.275, 379.231 256, 379.514 256 C 379.796 256, 380.904 255.452, 381.976 254.783 C 383.527 253.815, 384.906 253.857, 388.713 254.989 C 394.909 256.831, 408.671 257.435, 413.686 256.085 C 418.828 254.700, 425.803 248.643, 428.114 243.556 C 430.342 238.651, 430.551 229.967, 428.536 226.069 C 425.805 220.787, 421.314 218.160, 407.685 213.868 C 396.571 210.369, 393.911 209.129, 390.750 205.976 C 387.698 202.931, 387.003 201.516, 387.015 198.368 C 387.042 191.218, 391.338 186.401, 398.925 185.014 C 408.877 183.194, 416.960 188.051, 420.856 198.192 L 422.896 203.500 422.948 194.250 C 422.977 189.162, 422.587 185, 422.083 185 C 421.579 185, 420.981 185.557, 420.754 186.238 C 420.445 187.164, 418.594 186.908, 413.421 185.224 C 404.936 182.462, 399.867 182.424, 394.018 185.077 M 216.250 185.739 L 222 186.100 222 220.500 L 222 254.900 216.250 255.261 C 213.088 255.459, 224.338 255.707, 241.250 255.811 L 272 256 271.926 244.750 L 271.852 233.500 270 237.500 C 268.982 239.700, 268.115 241.960, 268.074 242.522 C 267.935 244.447, 261.822 251.041, 258.663 252.674 C 256.484 253.801, 251.869 254.456, 243.753 254.790 L 232 255.275 232 220.687 L 232 186.100 237.750 185.739 C 240.912 185.541, 236.075 185.378, 227 185.378 C 217.925 185.378, 213.088 185.541, 216.250 185.739 M 458.250 185.739 L 464 186.100 464 220.500 L 464 254.900 458.250 255.299 C 455.087 255.518, 461.950 255.653, 473.500 255.598 C 493.094 255.507, 494.774 255.353, 498.595 253.309 C 506.998 248.812, 510.998 241.540, 509.648 233.218 C 508.586 226.675, 503.737 221.958, 495.049 219.016 C 490.230 217.385, 490.076 217.235, 492.697 216.708 C 496.328 215.979, 501.758 212.254, 504.408 208.675 C 507.179 204.932, 507.163 197.065, 504.375 193.225 C 503.288 191.726, 499.978 189.262, 497.020 187.750 C 491.647 185.003, 491.620 185, 472.071 185.189 C 461.307 185.293, 455.087 185.541, 458.250 185.739 M 536.250 185.739 L 542 186.100 542 220.500 L 542 254.900 536.250 255.261 C 533.087 255.459, 537.925 255.622, 547 255.622 C 556.075 255.622, 560.913 255.459, 557.750 255.261 L 552 254.900 552 236.950 L 552 219 560.365 219 C 573.254 219, 575.004 221.097, 576.913 238.838 C 577.520 244.474, 578.649 249.429, 579.760 251.338 C 582.014 255.208, 587.779 257.389, 593.500 256.537 C 597.865 255.887, 600.802 254.469, 599.818 253.485 C 599.475 253.142, 598.319 253.408, 597.248 254.077 C 594.445 255.827, 590.547 254.491, 589.069 251.274 C 588.368 249.748, 587.411 244.119, 586.941 238.765 C 586.471 233.411, 585.659 228.236, 585.135 227.265 C 583.231 223.732, 579.087 220.811, 573.553 219.098 L 567.896 217.348 572.198 216.084 C 580.324 213.696, 585.953 205.744, 584.469 198.747 C 583.468 194.022, 579.332 189.055, 574.616 186.913 C 570.989 185.266, 568.125 185.064, 550.500 185.211 C 539.500 185.303, 533.087 185.541, 536.250 185.739 M 617.250 185.739 L 623 186.100 623 211.001 C 623 225.332, 623.467 238.078, 624.100 241.030 C 625.413 247.152, 629.756 252.529, 635.491 255.135 C 641.085 257.676, 654.948 257.661, 660.571 255.107 C 666.029 252.628, 670.664 246.794, 671.954 240.779 C 672.529 238.096, 673 224.696, 673 211.001 L 673 186.100 678.750 185.739 C 681.913 185.541, 678.875 185.378, 672 185.378 C 665.125 185.378, 662.087 185.541, 665.250 185.739 L 671 186.100 670.978 213.300 C 670.958 237.525, 670.755 240.942, 669.120 244.541 C 665.543 252.418, 657.869 256.569, 648.346 255.779 C 641.885 255.243, 638.277 252.900, 635.500 247.435 C 633.663 243.822, 633.474 241.156, 633.182 214.802 L 632.863 186.104 638.682 185.741 C 641.882 185.541, 637.075 185.378, 628 185.378 C 618.925 185.378, 614.087 185.541, 617.250 185.739 M 705.250 185.739 L 711 186.100 711 220.500 L 711 254.900 705.250 255.261 C 702.087 255.459, 706.700 255.624, 715.500 255.626 C 724.300 255.628, 729.138 255.465, 726.250 255.263 L 721 254.895 721 236.748 C 721 225.308, 721.351 218.951, 721.948 219.550 C 724.900 222.507, 750.975 253.614, 750.986 254.193 C 750.994 254.573, 749.087 255.057, 746.750 255.268 C 744.413 255.478, 749.250 255.654, 757.500 255.657 C 765.750 255.661, 770.889 255.492, 768.920 255.282 C 765.659 254.934, 763.713 253.030, 747.110 233.936 L 728.880 212.972 741.634 199.533 C 753.961 186.544, 754.541 186.081, 758.944 185.727 C 761.450 185.525, 758.550 185.353, 752.500 185.343 C 745.102 185.332, 743.222 185.518, 746.760 185.913 L 752.019 186.500 737.292 202 C 729.192 210.525, 722.213 217.650, 721.782 217.833 C 721.352 218.017, 721 210.953, 721 202.136 L 721 186.105 726.250 185.737 C 729.138 185.535, 724.300 185.372, 715.500 185.374 C 706.700 185.376, 702.087 185.541, 705.250 185.739 M 474 201.500 L 474 217 480.550 217 C 491.985 217, 495.524 213.206, 495.473 201 C 495.429 190.289, 490.870 186, 479.532 186 L 474 186 474 201.500 M 552 201.500 L 552 217 558.550 217 C 569.985 217, 573.524 213.206, 573.473 201 C 573.429 190.289, 568.870 186, 557.532 186 L 552 186 552 201.500 M 318.536 198.707 C 316.472 203.910, 309 224.158, 309 224.547 C 309 224.796, 313.725 225, 319.500 225 C 325.275 225, 330 224.814, 330 224.587 C 330 224.025, 319.885 197.576, 319.530 197.207 C 319.374 197.046, 318.927 197.721, 318.536 198.707 M 474 237 L 474 255 480.250 254.978 C 488.672 254.948, 494.088 252.441, 496.441 247.482 C 498.896 242.310, 498.941 230.785, 496.526 225.697 C 494.074 220.528, 490.657 219, 481.550 219 L 474 219 474 237" stroke="none" fill="#285898" fill-rule="evenodd"/>
</svg>