<svg xmlns="http://www.w3.org/2000/svg" width="64" height="64" viewBox="0 0 64 64">
  <rect width="64" height="64" rx="13" fill="#285898"/>
  <g transform="translate(12.00,19.63) scale(0.2151)">
    <path d="M 39.018 22.077 C 36.553 23.195, 33.692 24.873, 32.662 25.805 C 27.777 30.222, 25.076 40.811, 27.268 46.956 C 29.166 52.279, 35.118 56.066, 48.274 60.320 C 57.815 63.405, 60.673 64.792, 63.509 67.712 C 65.479 69.740, 67.066 72.438, 67.151 73.903 C 67.845 85.851, 62.923 91.840, 51.676 92.733 C 39.058 93.735, 30.870 88.608, 27.374 77.517 C 26.417 74.483, 25.267 72, 24.817 72 C 24.368 72, 24 76.725, 24 82.500 C 24 88.275, 24.231 93, 24.514 93 C 24.796 93, 25.904 92.452, 26.976 91.783 C 28.527 90.815, 29.906 90.857, 33.713 91.989 C 39.909 93.831, 53.671 94.435, 58.686 93.085 C 63.828 91.700, 70.803 85.643, 73.114 80.556 C 75.342 75.651, 75.551 66.967, 73.536 63.069 C 70.805 57.787, 66.314 55.160, 52.685 50.868 C 41.571 47.369, 38.911 46.129, 35.750 42.976 C 32.698 39.931, 32.003 38.516, 32.015 35.368 C 32.042 28.218, 36.338 23.401, 43.925 22.014 C 53.877 20.194, 61.960 25.051, 65.856 35.192 L 67.896 40.500 67.948 31.250 C 67.977 26.163, 67.588 22, 67.083 22 C 66.579 22, 65.981 22.557, 65.754 23.238 C 65.445 24.164, 63.594 23.908, 58.421 22.224 C 49.936 19.462, 44.867 19.424, 39.018 22.077 M 118 21.370 C 108.661 23.933, 99.840 31.846, 95.135 41.880 C 92.839 46.778, 92.500 48.785, 92.500 57.500 C 92.500 66.626, 92.762 68.019, 95.500 73.434 C 99.373 81.095, 106.540 88.412, 113.213 91.519 C 121.211 95.243, 131.815 95.032, 141.081 90.964 C 146.466 88.601, 148.427 88.158, 149.933 88.964 C 150.998 89.534, 152.123 90, 152.434 90 C 152.745 90, 153 85.050, 153 79 L 153 68 157 68 C 159.200 68, 161 67.550, 161 67 C 161 66.378, 155.333 66, 146 66 C 136.667 66, 131 66.378, 131 67 C 131 67.566, 133.878 68, 137.634 68 L 144.269 68 143.775 74.905 C 143.151 83.615, 140.571 88.061, 134.407 91.045 C 128.165 94.067, 119.844 93.486, 114.004 89.621 C 106.397 84.588, 102.064 68.819, 103.454 51.230 C 105.070 30.782, 112.023 21.896, 126.472 21.813 C 130.414 21.790, 134.085 22.421, 136.399 23.519 C 141.055 25.729, 145.727 31.345, 147.197 36.500 C 149.251 43.707, 150 42.558, 150 32.200 C 150 21.830, 149.637 20.961, 146.201 23.106 C 144.843 23.954, 142.836 23.721, 137.609 22.106 C 129.972 19.748, 124.641 19.547, 118 21.370" fill="#f3efe6"/>
  </g>
</svg>
